<svg width="26" height="27" viewBox="0 0 26 27" fill="none" xmlns="http://www.w3.org/2000/svg">
<g id="email" clip-path="url(#clip0_120_106)">
<path id="Vector" d="M23.8225 9.16667C23.8225 8.38667 23.4217 7.70417 22.8042 7.325L14.0942 2.2225C13.4225 1.82167 12.5775 1.82167 11.9058 2.2225L3.19582 7.325C2.57832 7.70417 2.16666 8.38667 2.16666 9.16667V20C2.16666 21.1917 3.14166 22.1667 4.33332 22.1667H21.6667C22.8583 22.1667 23.8333 21.1917 23.8333 20L23.8225 9.16667ZM11.8517 13.8683L4.05166 8.99333L11.9058 4.38917C12.5775 3.98833 13.4225 3.98833 14.0942 4.38917L21.9483 8.99333L14.1483 13.8683C13.4442 14.3017 12.5558 14.3017 11.8517 13.8683Z" fill="#664C27"/>
</g>
<defs>
<clipPath id="clip0_120_106">
<rect width="26" height="26" fill="white" transform="translate(0 0.5)"/>
</clipPath>
</defs>
</svg>
