<svg width="31" height="31" viewBox="0 0 31 31" fill="none" xmlns="http://www.w3.org/2000/svg">
<g id="in">
<path id="Vector" d="M7.42708 3.875C5.47681 3.875 3.875 5.47681 3.875 7.42708V23.5729C3.875 25.5232 5.47681 27.125 7.42708 27.125H23.5729C25.5232 27.125 27.125 25.5232 27.125 23.5729V7.42708C27.125 5.47681 25.5232 3.875 23.5729 3.875H7.42708ZM7.42708 5.8125H23.5729C24.4759 5.8125 25.1875 6.52406 25.1875 7.42708V23.5729C25.1875 24.4759 24.4759 25.1875 23.5729 25.1875H7.42708C6.52406 25.1875 5.8125 24.4759 5.8125 23.5729V7.42708C5.8125 6.52406 6.52406 5.8125 7.42708 5.8125ZM10.0104 8.39583C9.5822 8.39583 9.17153 8.56594 8.86873 8.86873C8.56594 9.17153 8.39583 9.5822 8.39583 10.0104C8.39583 10.4386 8.56594 10.8493 8.86873 11.1521C9.17153 11.4549 9.5822 11.625 10.0104 11.625C10.4386 11.625 10.8493 11.4549 11.1521 11.1521C11.4549 10.8493 11.625 10.4386 11.625 10.0104C11.625 9.5822 11.4549 9.17153 11.1521 8.86873C10.8493 8.56594 10.4386 8.39583 10.0104 8.39583ZM9.04167 12.9167C8.68452 12.9167 8.39583 13.2054 8.39583 13.5625V21.9583C8.39583 22.3155 8.68452 22.6042 9.04167 22.6042H10.9792C11.3363 22.6042 11.625 22.3155 11.625 21.9583V13.5625C11.625 13.2054 11.3363 12.9167 10.9792 12.9167H9.04167ZM13.5625 12.9167C13.2054 12.9167 12.9167 13.2054 12.9167 13.5625V21.9583C12.9167 22.3155 13.2054 22.6042 13.5625 22.6042H15.5C15.8571 22.6042 16.1458 22.3155 16.1458 21.9583V17.1146C16.1458 16.224 16.8698 15.5 17.7604 15.5C18.651 15.5 19.375 16.224 19.375 17.1146V21.9583C19.375 22.3155 19.6637 22.6042 20.0208 22.6042H21.9583C22.3155 22.6042 22.6042 22.3155 22.6042 21.9583V16.7917C22.6042 14.6546 20.8662 12.9167 18.7292 12.9167C17.7359 12.9167 16.8324 13.2951 16.1458 13.9119V13.5625C16.1458 13.2054 15.8571 12.9167 15.5 12.9167H13.5625Z" fill="#664C27"/>
</g>
</svg>
