<svg width="29" height="29" viewBox="0 0 29 29" fill="none" xmlns="http://www.w3.org/2000/svg">
<g id="insta">
<path id="Vector" d="M9.66667 3.625C6.33529 3.625 3.625 6.33529 3.625 9.66667V19.3333C3.625 22.6647 6.33529 25.375 9.66667 25.375H19.3333C22.6647 25.375 25.375 22.6647 25.375 19.3333V9.66667C25.375 6.33529 22.6647 3.625 19.3333 3.625H9.66667ZM9.66667 6.04167H19.3333C21.3319 6.04167 22.9583 7.66808 22.9583 9.66667V19.3333C22.9583 21.3319 21.3319 22.9583 19.3333 22.9583H9.66667C7.66808 22.9583 6.04167 21.3319 6.04167 19.3333V9.66667C6.04167 7.66808 7.66808 6.04167 9.66667 6.04167ZM20.5417 7.25C20.2212 7.25 19.9139 7.37731 19.6872 7.60391C19.4606 7.83052 19.3333 8.13786 19.3333 8.45833C19.3333 8.7788 19.4606 9.08615 19.6872 9.31275C19.9139 9.53936 20.2212 9.66667 20.5417 9.66667C20.8621 9.66667 21.1695 9.53936 21.3961 9.31275C21.6227 9.08615 21.75 8.7788 21.75 8.45833C21.75 8.13786 21.6227 7.83052 21.3961 7.60391C21.1695 7.37731 20.8621 7.25 20.5417 7.25ZM14.5 8.45833C11.1686 8.45833 8.45833 11.1686 8.45833 14.5C8.45833 17.8314 11.1686 20.5417 14.5 20.5417C17.8314 20.5417 20.5417 17.8314 20.5417 14.5C20.5417 11.1686 17.8314 8.45833 14.5 8.45833ZM14.5 10.875C16.4986 10.875 18.125 12.5014 18.125 14.5C18.125 16.4986 16.4986 18.125 14.5 18.125C12.5014 18.125 10.875 16.4986 10.875 14.5C10.875 12.5014 12.5014 10.875 14.5 10.875Z" fill="#664C27"/>
</g>
</svg>
