<svg width="21" height="65" viewBox="0 0 21 65" fill="none" xmlns="http://www.w3.org/2000/svg">
<path id="Vector" d="M20.5046 11.0499C20.5046 8.23647 19.4322 5.53828 17.5232 3.54891C15.6142 1.55952 13.025 0.441895 10.3252 0.441895C7.62546 0.441895 5.0363 1.55952 3.12729 3.54891C1.21828 5.53828 0.145813 8.23647 0.145813 11.0499V43.1274L8.52884 49.3869V64.6359H12.1216V49.3869L20.5046 43.1274V11.0499ZM16.9119 28.9899L12.1216 33.9819V29.3019L16.9119 24.3099V28.9899ZM3.81339 24.3099L8.60369 29.3019V33.9819L3.81339 28.9899V24.3099ZM16.9119 19.0059L10.3252 25.8699L3.73854 18.8499V14.1699L10.3252 21.0339L16.9119 14.1699V19.0059ZM10.3252 4.18589C11.7738 4.19256 13.1804 4.69393 14.3294 5.61316C15.4785 6.53239 16.3067 7.8188 16.6873 9.27539L10.3252 15.8859L3.96309 9.27539C4.32973 7.80431 5.152 6.50045 6.30234 5.56612C7.45269 4.63178 8.86677 4.11919 10.3252 4.10788V4.18589ZM3.73854 41.2359V34.2159L8.52884 39.2079V44.7849L3.73854 41.2359ZM12.1216 44.8044V39.2079L16.9119 34.2159V41.2164L12.1216 44.8044Z" fill="#A92D00"/>
</svg>
