<svg width="25" height="25" viewBox="0 0 25 25" fill="none" xmlns="http://www.w3.org/2000/svg">
<g id="wsp">
<path id="Vector" d="M14.0597 0.629883C8.32432 0.629883 3.65532 5.29486 3.65324 11.0303C3.6522 12.8636 4.13239 14.6534 5.04281 16.2305L3.63086 21.4632L9.0813 20.1754C10.6011 21.0045 12.312 21.4398 14.0536 21.4408H14.0577C19.7921 21.4408 24.459 16.7748 24.4622 11.0404C24.4642 8.26024 23.3831 5.64627 21.4185 3.67961C19.454 1.71398 16.8431 0.630924 14.0597 0.629883ZM14.0577 2.71322C16.2827 2.71426 18.3737 3.58175 19.9456 5.15259C21.5174 6.7255 22.3809 8.81549 22.3788 11.0384C22.3767 15.6259 18.6452 19.3575 14.0557 19.3575C12.6671 19.3565 11.2917 19.0078 10.0802 18.3464L9.37834 17.9639L8.60319 18.147L6.55241 18.6312L7.0529 16.7716L7.27873 15.9375L6.84741 15.1888C6.12033 13.9305 5.73553 12.4917 5.73657 11.0303C5.73866 6.44486 9.47124 2.71322 14.0577 2.71322ZM10.3773 6.22884C10.2033 6.22884 9.92205 6.29395 9.68351 6.55436C9.44497 6.81374 8.77205 7.44194 8.77205 8.72111C8.77205 10.0003 9.70386 11.2368 9.83407 11.4107C9.96323 11.5836 11.6327 14.2916 14.2754 15.3333C16.4712 16.1989 16.9172 16.028 17.3943 15.9843C17.8714 15.9416 18.9334 15.3566 19.1501 14.7493C19.3667 14.1421 19.3672 13.6197 19.3027 13.5124C19.2381 13.404 19.0646 13.3394 18.8042 13.2092C18.5448 13.079 17.2666 12.4514 17.0281 12.3649C16.7895 12.2785 16.6151 12.2347 16.4421 12.4951C16.2692 12.7555 15.7723 13.3395 15.6202 13.5124C15.4681 13.6863 15.3171 13.7097 15.0566 13.5795C14.7962 13.4483 13.9589 13.173 12.9652 12.2876C12.1923 11.5991 11.6707 10.7495 11.5186 10.4891C11.3676 10.2297 11.5044 10.0873 11.6346 9.95809C11.7513 9.84142 11.893 9.65444 12.0232 9.50236C12.1524 9.35028 12.1972 9.24193 12.2836 9.06901C12.3701 8.89609 12.3258 8.74349 12.2612 8.61328C12.1966 8.48307 11.6909 7.19915 11.4596 6.68457C11.2648 6.25228 11.0591 6.24224 10.8737 6.23494C10.7227 6.22869 10.5502 6.22884 10.3773 6.22884Z" fill="#664C27"/>
</g>
</svg>
